<svg width="28" height="37" viewBox="0 0 28 37" fill="none" xmlns="http://www.w3.org/2000/svg">
<rect x="2" y="13" width="24" height="22" rx="3" stroke="#94627C" stroke-width="4"/>
<rect x="2" y="13" width="24" height="22" rx="3" stroke="black" stroke-opacity="0.1" stroke-width="4"/>
<path d="M13 22V23H15V22H13ZM14.7071 0.292892C14.3166 -0.0976315 13.6834 -0.0976315 13.2929 0.292892L6.92893 6.65685C6.53841 7.04738 6.53841 7.68054 6.92893 8.07107C7.31946 8.46159 7.95262 8.46159 8.34315 8.07107L14 2.41421L19.6569 8.07107C20.0474 8.46159 20.6805 8.46159 21.0711 8.07107C21.4616 7.68054 21.4616 7.04738 21.0711 6.65685L14.7071 0.292892ZM15 22L15 1H13L13 22H15Z" fill="#94627C"/>
<path d="M13 22V23H15V22H13ZM14.7071 0.292892C14.3166 -0.0976315 13.6834 -0.0976315 13.2929 0.292892L6.92893 6.65685C6.53841 7.04738 6.53841 7.68054 6.92893 8.07107C7.31946 8.46159 7.95262 8.46159 8.34315 8.07107L14 2.41421L19.6569 8.07107C20.0474 8.46159 20.6805 8.46159 21.0711 8.07107C21.4616 7.68054 21.4616 7.04738 21.0711 6.65685L14.7071 0.292892ZM15 22L15 1H13L13 22H15Z" fill="black" fill-opacity="0.1"/>
</svg>
